<svg height="512pt" viewBox="-33 0 512 512" width="512pt" xmlns="http://www.w3.org/2000/svg"><path d="m207.773438 202.832031-48.917969 48.921875c-26.757813 26.757813-70.144531 26.757813-96.902344 0-26.757813-26.761718-26.757813-70.144531 0-96.902344 33.398437-33.398437 87.550781-33.398437 120.949219 0l24.871094 24.871094c6.382812 6.382813 6.382812 16.726563 0 23.109375zm0 0" fill="#8cd6fe"/><path d="m116.414062 202.484375c-4.039062 0-7.371093-3.214844-7.492187-7.277344-.125-4.140625 3.128906-7.597656 7.273437-7.71875l62.328126-1.863281c4.101562-.136719 7.597656 3.132812 7.71875 7.273438.125 4.140624-3.132813 7.597656-7.273438 7.71875l-62.328125 1.863281c-.074219 0-.152344.003906-.226563.003906zm0 0" fill="#bae7ff"/><path d="m314.933594 497.332031c-.550782 0-1.105469-.023437-1.660156-.066406-11.234376-.90625-19.605469-10.746094-18.699219-21.980469 2.128906-26.378906-24.234375-44.238281-28.0625-45.851562-10.386719-4.371094-15.257813-16.335938-10.886719-26.722656 4.375-10.386719 16.339844-15.261719 26.722656-10.886719 18.148438 7.640625 56.664063 40.09375 52.902344 86.742187-.859375 10.675782-9.789062 18.765625-20.316406 18.765625zm0 0" fill="#efd176"/><path d="m369.179688 337.683594c-20.207032 0-39.804688-9.359375-58.304688-27.859375-7.96875-7.96875-7.96875-20.886719 0-28.855469 7.96875-7.964844 20.886719-7.964844 28.855469 0 10.960937 10.960938 21.246093 16.316406 30.574219 15.882812 9.835937-.441406 20.429687-7.386718 31.484374-20.632812 7.21875-8.652344 20.085938-9.816406 28.738282-2.597656 8.652344 7.222656 9.8125 20.089844 2.59375 28.738281-18.703125 22.417969-39.21875 34.277344-60.980469 35.257813-.988281.046874-1.972656.066406-2.960937.066406zm0 0" fill="#efd176"/><path d="m129.3125 360.054688-19.3125 63.480468c-3.753906 12.347656 7.785156 23.890625 20.132812 20.132813l63.484376-19.3125-14.242188-50.058594zm0 0" fill="#4e5660"/><path d="m204.597656 512c-4.09375 0-8.226562-1.226562-11.8125-3.78125-9.183594-6.53125-11.328125-19.273438-4.796875-28.453125 15.542969-21.84375 2.925781-49.644531-.042969-53.851563-6.5-9.203124-4.304687-21.9375 4.902344-28.433593 9.207032-6.5 21.9375-4.304688 28.4375 4.902343 11.671875 16.542969 27.019532 63-.046875 101.039063-3.980469 5.59375-10.265625 8.578125-16.640625 8.578125zm0 0" fill="#efd176"/><path d="m339.597656 214.070312c-46.613281-46.613281-127.464844-41.335937-180.589844 11.785157-53.125 53.125-58.402343 133.976562-11.789062 180.589843 46.613281 46.613282 127.46875 41.335938 180.589844-11.785156 53.125-53.125 58.402344-133.976562 11.789062-180.589844zm0 0" fill="#f7ef87"/><path d="m188.453125 202.78125c-10.421875 6.273438-20.339844 13.972656-29.441406 23.074219-11.214844 11.214843-20.285157 23.664062-27.199219 36.765625 25.222656 81.550781 99.773438 164.875 194.191406 133.8125.605469-.589844 1.210938-1.175782 1.8125-1.773438 19.492188-19.492187 32.535156-42.722656 38.941406-66.621094-84.265624 19.640626-151.082031-51.203124-178.304687-125.257812zm0 0" fill="#4e5660"/><path d="m445.527344 133.601562c0 73.785157-64.1875 118.777344-143.367188 118.777344-79.179687 0-143.367187-44.992187-143.367187-118.777344 0-73.785156 64.1875-133.601562 143.367187-133.601562 79.179688 0 143.367188 59.816406 143.367188 133.601562zm0 0" fill="#f7ef87"/><path d="m372.171875 238.988281c-119.945313-6.316406-155.261719-180.609375-105.0625-234.960937-62.238281 14.574218-108.316406 67.058594-108.316406 129.574218 0 73.785157 64.1875 118.777344 143.367187 118.777344 25.429688 0 49.304688-4.648437 70.011719-13.390625zm0 0" fill="#efd176"/><path d="m165.886719 259.097656-48.917969 48.921875c-26.757812 26.757813-70.140625 26.757813-96.898438 0-26.761718-26.757812-26.761718-70.140625 0-96.902343 33.398438-33.398438 87.546876-33.398438 120.945313 0l24.871094 24.875c6.382812 6.378906 6.382812 16.726562 0 23.105468zm0 0" fill="#bae7ff"/><path d="m178.332031 409.054688c-8.160156 0-15.863281-4.921876-19.007812-12.980469-7.582031-19.398438-7.085938-40.519531 1.398437-59.480469 8.054688-17.988281 22.59375-31.996094 39.886719-38.4375 10.5625-3.929688 22.308594 1.445312 26.242187 12.003906 3.929688 10.5625-1.441406 22.308594-12.003906 26.242188-7.007812 2.609375-13.316406 8.914062-16.878906 16.867187-3.980469 8.894531-4.207031 18.820313-.640625 27.949219 4.105469 10.496094-1.078125 22.328125-11.574219 26.433594-2.4375.953125-4.953125 1.402344-7.421875 1.402344zm0 0" fill="#efd176"/><path d="m249.015625 149.746094c0-13.667969-13.914063-24.75-31.074219-24.75-17.164062 0-31.074218 11.082031-31.074218 24.75 0 13.667968 13.910156 24.746094 31.074218 24.746094 17.160156 0 31.074219-11.078126 31.074219-24.746094zm0 0" fill="#eda1ab"/><path d="m417.453125 149.746094c0-13.667969-13.910156-24.75-31.074219-24.75-17.160156 0-31.074218 11.082031-31.074218 24.75 0 13.667968 13.914062 24.746094 31.074218 24.746094 17.164063 0 31.074219-11.078126 31.074219-24.746094zm0 0" fill="#eda1ab"/><g fill="#4e5660"><path d="m250.84375 130.316406c-4.144531 0-7.5-3.359375-7.5-7.5 0-4.019531-3.269531-7.292968-7.292969-7.292968-4.019531 0-7.292969 3.273437-7.292969 7.292968 0 4.140625-3.355468 7.5-7.5 7.5-4.140624 0-7.5-3.359375-7.5-7.5 0-12.292968 10-22.292968 22.292969-22.292968s22.292969 10 22.292969 22.292968c0 4.140625-3.359375 7.5-7.5 7.5zm0 0"/><path d="m383.058594 130.316406c-4.140625 0-7.5-3.359375-7.5-7.5 0-4.019531-3.269532-7.292968-7.289063-7.292968s-7.292969 3.273437-7.292969 7.292968c0 4.140625-3.355468 7.5-7.5 7.5-4.140624 0-7.5-3.359375-7.5-7.5 0-12.292968 10-22.292968 22.292969-22.292968 12.289063 0 22.289063 10 22.289063 22.292968 0 4.140625-3.355469 7.5-7.5 7.5zm0 0"/><path d="m302.160156 154.75c-8.183594 0-15.960937-3.542969-21.34375-9.71875-2.722656-3.125-2.398437-7.859375.726563-10.582031 3.121093-2.722657 7.859375-2.398438 10.582031.726562 2.535156 2.90625 6.191406 4.574219 10.035156 4.574219s7.5-1.667969 10.035156-4.574219c2.722657-3.125 7.460938-3.449219 10.582032-.726562 3.121094 2.71875 3.445312 7.457031.726562 10.582031-5.382812 6.175781-13.164062 9.71875-21.34375 9.71875zm0 0"/><path d="m249.015625 65.0625c-4.140625 0-7.5-3.355469-7.5-7.5 0-21.609375-17.582031-39.1875-39.191406-39.1875-4.140625 0-7.5-3.359375-7.5-7.5 0-4.144531 3.359375-7.5 7.5-7.5 29.882812 0 54.191406 24.308594 54.191406 54.1875 0 4.144531-3.355469 7.5-7.5 7.5zm0 0"/><path d="m355.304688 65.0625c-4.140626 0-7.5-3.355469-7.5-7.5 0-29.878906 24.308593-54.1875 54.191406-54.1875 4.140625 0 7.5 3.355469 7.5 7.5 0 4.140625-3.359375 7.5-7.5 7.5-21.613282 0-39.191406 17.578125-39.191406 39.1875 0 4.144531-3.359376 7.5-7.5 7.5zm0 0"/></g><path d="m74.527344 258.75c-4.039063 0-7.371094-3.210938-7.492188-7.273438-.125-4.140624 3.132813-7.597656 7.273438-7.722656l62.328125-1.859375c4.105469-.132812 7.597656 3.132813 7.71875 7.273438.125 4.140625-3.132813 7.597656-7.273438 7.71875l-62.328125 1.859375c-.074218.003906-.152344.003906-.226562.003906zm0 0" fill="#8cd6fe"/></svg>