<svg height="512pt" viewBox="-6 0 512 512" width="512pt" xmlns="http://www.w3.org/2000/svg"><path d="m391 512h-282c-3.242188 0-6.398438-1.050781-8.992188-2.992188-30.425781-22.789062-55.609374-52.660156-72.828124-86.386718-18.035157-35.324219-27.179688-73.550782-27.179688-113.621094s9.144531-78.296875 27.179688-113.621094c16.070312-31.480468 39.082031-59.601562 66.820312-81.738281v-38.640625c0-8.285156 6.714844-15 15-15h282c8.285156 0 15 6.714844 15 15v38.640625c27.738281 22.140625 50.75 50.257813 66.820312 81.738281 18.035157 35.324219 27.179688 73.550782 27.179688 113.621094s-9.144531 78.296875-27.179688 113.621094c-17.21875 33.726562-42.402343 63.597656-72.828124 86.386718-2.59375 1.941407-5.75 2.992188-8.992188 2.992188zm-282-390.996094h.007812zm0 0" fill="#ffb43c"/><path d="m472.820312 195.378906c-16.070312-31.480468-39.082031-59.601562-66.820312-81.738281v-38.640625c0-8.285156-6.714844-15-15-15h-141v452h141c3.242188 0 6.398438-1.050781 8.992188-2.992188 30.425781-22.789062 55.609374-52.660156 72.828124-86.386718 18.035157-35.324219 27.179688-73.550782 27.179688-113.621094s-9.144531-78.296875-27.179688-113.621094zm0 0" fill="#faa01b"/><path d="m408.097656 290.757812-28.972656-50.1875c-2.679688-4.640624-7.632812-7.5-12.992188-7.5h-57.949218c-5.359375 0-10.3125 2.859376-12.988282 7.5l-24.644531 42.6875h-40.882812l-24.644531-42.6875c-2.679688-4.640624-7.632813-7.5-12.992188-7.5h-57.949219c-5.359375 0-10.308593 2.859376-12.988281 7.5l-28.976562 50.1875c-2.679688 4.640626-2.679688 10.359376 0 15l28.976562 50.183594c2.679688 4.644532 7.628906 7.5 12.988281 7.5h49.289063l24.648437 42.6875c2.679688 4.640625 7.628907 7.5 12.988281 7.5h57.949219c5.359375 0 10.3125-2.859375 12.992188-7.5l24.644531-42.6875h49.539062c5.359376 0 10.3125-2.855468 12.992188-7.5l28.972656-50.183594c2.679688-4.640624 2.679688-10.359374 0-15zm0 0" fill="#ffeb8a"/><path d="m278.957031 413.628906c5.359375 0 10.3125-2.859375 12.992188-7.5l24.644531-42.6875h49.539062c5.359376 0 10.3125-2.859375 12.992188-7.5l28.972656-50.183594c2.679688-4.644531 2.679688-10.359374 0-15l-28.972656-50.1875c-2.679688-4.640624-7.632812-7.5-12.992188-7.5h-57.949218c-5.359375 0-10.3125 2.859376-12.988282 7.5l-24.644531 42.6875h-20.550781v130.371094zm0 0" fill="#ffdc32"/><path d="m229.667969 383.628906h40.628906l20.316406-35.1875-20.316406-35.183594h-40.628906l-20.3125 35.183594zm0 0" fill="#fac814"/><path d="m142.742188 333.441406h40.628906l20.316406-35.183594-20.316406-35.1875h-40.628906l-20.3125 35.1875zm0 0" fill="#fac814"/><path d="m316.84375 333.441406h40.628906l20.316406-35.183594-20.316406-35.1875h-40.628906l-20.316406 35.1875zm0 0" fill="#f0aa00"/><path d="m290.613281 348.441406-20.316406-35.183594h-20.296875v70.371094h20.296875zm0 0" fill="#f0aa00"/><path d="m400 90h-300c-24.8125 0-45-20.1875-45-45s20.1875-45 45-45h300c24.8125 0 45 20.1875 45 45s-20.1875 45-45 45zm0 0" fill="#fbd898"/><path d="m445 45c0-24.8125-20.1875-45-45-45h-150v90h150c24.8125 0 45-20.1875 45-45zm0 0" fill="#fac86f"/><path d="m310.78125 139.992188c-25.175781.433593-45.78125-20.609376-45.78125-45.789063v-94.203125h90v95c0 24.550781-19.761719 44.574219-44.21875 44.992188zm0 0" fill="#fbd898"/><path d="m310.78125 139.992188c-25.175781.433593-45.78125-20.609376-45.78125-45.789063v-94.203125h90v95c0 24.550781-19.761719 44.574219-44.21875 44.992188zm0 0" fill="#f0820a"/></svg>